<?xml version="1.0" encoding="utf-8"?>
<!-- Generator: Adobe Illustrator 25.4.1, SVG Export Plug-In . SVG Version: 6.00 Build 0)  -->
<svg version="1.1" id="Layer_1" xmlns="http://www.w3.org/2000/svg" xmlns:xlink="http://www.w3.org/1999/xlink" x="0px" y="0px"
	 viewBox="0 0 24 24" style="enable-background:new 0 0 24 24;" xml:space="preserve">
<style type="text/css">
	.st0{fill:#FFFFFF;}
</style>
<path class="st0" d="M6,23.7l-3-2.1V7.4l3,1.4V23.7z M8,8.9V24l13-2V7L8,8.9z M14,1c-2.1,0-4,2-4,4.3l0,1.7c0,0.3,0.3,0.5,0.6,0.5
	c0.2,0,0.4-0.2,0.4-0.5V5.3C11,3.6,12.4,2,14,2c0.5,0,1,0.2,1.4,0.6C15.8,3,16,3.6,16,4.3V6c0,0.3,0.3,0.5,0.6,0.5
	C16.8,6.5,17,6.3,17,6l0-1.7C17,2.4,15.7,1,14,1z M7.6,7C7.8,7,8,6.7,8,6.5V4.3C8,2.6,9.4,1,11,1l0.2,0c0.4-0.3,0.8-0.5,1.2-0.7
	C11.9,0.1,11.5,0,11,0C8.9,0,7,2,7,4.3v2.2C7,6.8,7.3,7,7.6,7z"/>
</svg>
