<svg id="Layer_1" data-name="Layer 1" xmlns="http://www.w3.org/2000/svg" width="24" height="24" viewBox="0 0 24 24"><defs><style>.cls-1{fill:#fff;}</style></defs><path class="cls-1" d="M6,23.73,3,21.61V7.41L6,8.77ZM8,8.88V24l13-1.95V7ZM14,1a4.26,4.26,0,0,0-4,4.27V7a.49.49,0,0,0,.57.49A.49.49,0,0,0,11,7V5.27A3.26,3.26,0,0,1,14,2a1.92,1.92,0,0,1,1.39.56A2.44,2.44,0,0,1,16,4.29V6a.5.5,0,0,0,1,0V4.29A3.1,3.1,0,0,0,14,1ZM7.57,7A.49.49,0,0,0,8,6.5V4.27A3.26,3.26,0,0,1,11,1h.16A5.23,5.23,0,0,1,12.31.33,2.9,2.9,0,0,0,11,0,4.25,4.25,0,0,0,7,4.27V6.5A.49.49,0,0,0,7.57,7Z"/></svg>